<?xml version="1.0" encoding="UTF-8"?>
<svg id="Layer_2" data-name="Layer 2" xmlns="http://www.w3.org/2000/svg" viewBox="0 0 152.95 135.77">
  <defs>
    <style>
      .cls-1 {
        fill: #deeaf7;
      }

      .cls-1, .cls-2, .cls-3 {
        fill-rule: evenodd;
        opacity: .4;
      }

      .cls-2 {
        fill: #e2f0d9;
      }

      .cls-3 {
        fill: #fae4d6;
      }

      .cls-4 {
        fill: none;
        stroke: #162c51;
        stroke-miterlimit: 8;
      }
    </style>
  </defs>
  <g id="Layer_1-2" data-name="Layer 1">
    <path class="cls-3" d="M111.78,133.32c-30.24,8.1-61.33-9.84-69.43-40.09-8.1-30.24,9.84-61.33,40.09-69.43,30.24-8.1,61.33,9.84,69.43,40.09.17.64.33,1.29.48,1.94l-27.04,6.23c-3.59-15.58-19.13-25.29-34.71-21.7-15.58,3.59-25.29,19.13-21.7,34.71,3.59,15.58,19.13,25.29,34.71,21.7.33-.08.66-.16.99-.25l7.18,26.8Z"/>
    <path class="cls-4" d="M111.78,133.32c-30.24,8.1-61.33-9.84-69.43-40.09-8.1-30.24,9.84-61.33,40.09-69.43,30.24-8.1,61.33,9.84,69.43,40.09.17.64.33,1.29.48,1.94l-27.04,6.23c-3.59-15.58-19.13-25.29-34.71-21.7-15.58,3.59-25.29,19.13-21.7,34.71,3.59,15.58,19.13,25.29,34.71,21.7.33-.08.66-.16.99-.25l7.18,26.8Z"/>
    <path class="cls-2" d="M116.73,2.7c21.97,22.31,21.69,58.21-.62,80.17-22.31,21.97-58.21,21.69-80.17-.62C13.97,59.94,14.25,24.05,36.56,2.08c.47-.47.96-.92,1.45-1.37l18.76,20.44c-11.78,10.81-12.57,29.12-1.76,40.9,10.81,11.78,29.12,12.57,40.9,1.76,11.78-10.81,12.57-29.12,1.76-40.9-.23-.25-.46-.5-.7-.74L116.73,2.7Z"/>
    <path class="cls-4" d="M116.73,2.7c21.97,22.31,21.69,58.21-.62,80.17-22.31,21.97-58.21,21.69-80.17-.62C13.97,59.94,14.25,24.05,36.56,2.08c.47-.47.96-.92,1.45-1.37l18.76,20.44c-11.78,10.81-12.57,29.12-1.76,40.9,10.81,11.78,29.12,12.57,40.9,1.76,11.78-10.81,12.57-29.12,1.76-40.9-.23-.25-.46-.5-.7-.74L116.73,2.7Z"/>
    <path class="cls-1" d="M.61,63.89C8.72,33.64,39.8,15.7,70.05,23.8c30.24,8.1,48.19,39.19,40.09,69.43-8.1,30.24-39.19,48.19-69.43,40.09-.64-.17-1.28-.36-1.92-.55l8.12-26.53c15.29,4.68,31.47-3.92,36.15-19.21,4.68-15.29-3.92-31.47-19.21-36.15-15.29-4.68-31.47,3.92-36.15,19.21-.1.32-.19.65-.28.98L.61,63.89Z"/>
    <path class="cls-4" d="M.61,63.89C8.72,33.64,39.8,15.7,70.05,23.8c30.24,8.1,48.19,39.19,40.09,69.43-8.1,30.24-39.19,48.19-69.43,40.09-.64-.17-1.28-.36-1.92-.55l8.12-26.53c15.29,4.68,31.47-3.92,36.15-19.21,4.68-15.29-3.92-31.47-19.21-36.15s-31.47,3.92-36.15,19.21c-.1.32-.19.65-.28.98L.61,63.89Z"/>
  </g>
</svg>